<svg id="Layer_1" data-name="Layer 1" xmlns="http://www.w3.org/2000/svg" viewBox="0 0 558 558"><defs><style>.cls-1{fill:#f2f2f2;}.cls-2{fill:gray;}.cls-3{fill:#ccc;}.cls-4{isolation:isolate;}.cls-5{fill:#ff931e;}</style></defs><path class="cls-1" d="M280,556.5A276.48,276.48,0,0,1,84.5,84.5a276.48,276.48,0,1,1,391,391A274.65,274.65,0,0,1,280,556.5Z" transform="translate(-1 -1)"/><path class="cls-2" d="M280,6A274,274,0,0,1,473.8,473.8a274.67,274.67,0,0,1-300.5,58.7,274.8,274.8,0,0,1-87.1-58.7A274.67,274.67,0,0,1,27.5,173.3,274.8,274.8,0,0,1,86.2,86.2,273.06,273.06,0,0,1,280,6m0-5C125.9,1,1,125.9,1,280S125.9,559,280,559,559,434.1,559,280,434.1,1,280,1Z" transform="translate(-1 -1)"/><path class="cls-3" d="M372.6,160.2c-92.9-56.1-149.3-1.9-174.2,34.2-22.2-17.1-78.3-48.6-130.9,17-57.8,72-27.7,188.1,32.3,207.7,30.4,9.9,70.3,0,70.3,0s-5-34.9,8.7-62.7c6.6-13.4,17.5-23.4,28.4-30.7v79.5s-.4,17.6,8,18.1c11.3.7,15.1-16.2,15.1-16.2l13.8-51.2,33.7,58.7c9.2,17.9,18.3,5.8,16.3-5.7-.7-3.7-16.4-85.8-16.4-85.8l38.4.2v81.4s.6,17.1,7.7,18.5c9.3,1.8,15-20.2,15-20.2l15-54,40,65.2c14.3,20.2,25.3,4,21.6-8.1-1.4-4.7-32.6-89.9-34.8-95.9,14.7,1.1,31,4.1,42.7,11.2,58.4,34.9,79.8,115.3,87.2,100.9C518.7,406.2,475.5,222.4,372.6,160.2Zm87,161.5c-3.3,0-6-4.2-6-9.4s2.7-9.4,6-9.4,6,4.2,6,9.4S462.9,321.7,459.6,321.7Z" transform="translate(-1 -1)"/><g class="cls-4"><path class="cls-5" d="M103.25,175.73,112,210l-13.7,3.88q-6.81-12.27-15.43-18a32.79,32.79,0,0,0-18.36-5.69q-6.28,0-9.91,2.57T51,198.51a9.08,9.08,0,0,0,3.3,6.68q3.23,3.08,11.87,5.5l19.62,5.71q16.34,4.69,23.3,12.46A26.88,26.88,0,0,1,116,247.12q0,13.26-10.55,22.42-11.79,10.13-29.29,10.12a50.85,50.85,0,0,1-14.94-2.09,55.14,55.14,0,0,1-14.21-7l-3.23,7.32H32.86l-7.25-39.62,13.7-3.3a48.12,48.12,0,0,0,15,20.18,35.3,35.3,0,0,0,22.45,8.09,25.56,25.56,0,0,0,9.11-1.39A11.72,11.72,0,0,0,91.38,258a8.57,8.57,0,0,0,1.83-5.13c0-2.92-1.42-5.44-4.25-7.54s-7.91-4.17-15.08-6.22l-17.08-5A78.43,78.43,0,0,1,46.29,230a38.78,38.78,0,0,1-10.17-6.34,27.18,27.18,0,0,1-8.24-19.34,26.72,26.72,0,0,1,4.5-15q4.51-6.85,13.55-11.1A46.59,46.59,0,0,1,66,174a43.32,43.32,0,0,1,24,6.89l2.85-5.13Z" transform="translate(-1 -1)"/><path class="cls-5" d="M135.4,172.29h9.66l1,3.44h57.57l1.24-3.44h9.74l12.68,35.81-13.63,4.76a103.83,103.83,0,0,0-6.52-11.64,30.92,30.92,0,0,0-8.93-8.43,14.36,14.36,0,0,0-7.55-2.34,2.91,2.91,0,0,0-2.41.84c-.44.56-.66,1.85-.66,3.85v58.74a32.83,32.83,0,0,0,.37,6.52,4.09,4.09,0,0,0,1.25,2.08,4.77,4.77,0,0,0,2.43,1,73.73,73.73,0,0,0,8.25.26V277.9H150V263.77h3c3.34,0,5.47-.21,6.41-.63a4.22,4.22,0,0,0,2.13-2.19q.73-1.57.74-6.56V194.33c0-1.71-.2-2.78-.59-3.22a3.38,3.38,0,0,0-2.49-.66,16.62,16.62,0,0,0-8.49,2.86,28.25,28.25,0,0,0-8.35,8.05,124.72,124.72,0,0,0-6.23,11.5l-13.4-4.76Z" transform="translate(-1 -1)"/><path class="cls-5" d="M273.31,175.73h22.95l30.66,78.88q2.49,6.3,4.43,7.76c1.3,1,3.68,1.44,7.14,1.4V277.9H290.15V263.77l2.93-.08q4,0,5.65-1.06a3.08,3.08,0,0,0,1.61-2.6,22.5,22.5,0,0,0-1.39-5.42l-3.05-9.3H264.83L261,255.64a17.17,17.17,0,0,0-1.17,4.32,3.12,3.12,0,0,0,.84,2.12,5.06,5.06,0,0,0,2.75,1.39,43.55,43.55,0,0,0,6.89.3V277.9H230.75V263.77a17.11,17.11,0,0,0,5.57-.66,7,7,0,0,0,2.89-2,18.22,18.22,0,0,0,2.53-4.91Zm-3.07,55h20.29l-9.88-28.06Z" transform="translate(-1 -1)"/><path class="cls-5" d="M354.46,172.29h9.67l1,3.44h57.57l1.24-3.44h9.75l12.67,35.81-13.63,4.76a104.31,104.31,0,0,0-6.51-11.64,31,31,0,0,0-8.94-8.43,14.33,14.33,0,0,0-7.54-2.34,2.92,2.92,0,0,0-2.42.84c-.44.56-.66,1.85-.66,3.85v58.74a32.83,32.83,0,0,0,.37,6.52,4.09,4.09,0,0,0,1.25,2.08,4.77,4.77,0,0,0,2.43,1,73.73,73.73,0,0,0,8.25.26V277.9H369.11V263.77h3c3.34,0,5.47-.21,6.41-.63a4.22,4.22,0,0,0,2.13-2.19c.5-1.05.74-3.24.74-6.56V194.33c0-1.71-.19-2.78-.58-3.22a3.42,3.42,0,0,0-2.5-.66,16.65,16.65,0,0,0-8.49,2.86,28.25,28.25,0,0,0-8.35,8.05,124.72,124.72,0,0,0-6.23,11.5l-13.4-4.76Z" transform="translate(-1 -1)"/><path class="cls-5" d="M532.36,175.73,541.15,210l-13.7,3.88q-6.8-12.27-15.43-18a32.78,32.78,0,0,0-18.35-5.69q-6.3,0-9.91,2.57c-2.42,1.71-3.62,3.61-3.62,5.71a9.1,9.1,0,0,0,3.29,6.68q3.22,3.08,11.87,5.5l19.63,5.71q16.34,4.69,23.29,12.46a26.83,26.83,0,0,1,6.88,18.26q0,13.26-10.54,22.42-11.79,10.13-29.3,10.12a50.85,50.85,0,0,1-14.94-2.09,55.3,55.3,0,0,1-14.21-7l-3.22,7.32H462l-7.25-39.62,13.7-3.3a48.12,48.12,0,0,0,15.05,20.18,35.3,35.3,0,0,0,22.45,8.09,25.66,25.66,0,0,0,9.12-1.39A11.77,11.77,0,0,0,520.5,258a8.63,8.63,0,0,0,1.83-5.13c0-2.92-1.42-5.44-4.25-7.54s-7.91-4.17-15.09-6.22l-17.08-5a78.4,78.4,0,0,1-10.5-4.13,38.86,38.86,0,0,1-10.18-6.34A27.29,27.29,0,0,1,457,204.3a26.73,26.73,0,0,1,4.51-15q4.5-6.85,13.55-11.1a46.57,46.57,0,0,1,20-4.25A43.3,43.3,0,0,1,519,180.86l2.86-5.13Z" transform="translate(-1 -1)"/></g><g class="cls-4"><path class="cls-5" d="M266.33,301.37v14.36q-14,.51-22.38,2.63A45.84,45.84,0,0,0,230,324.15a32.66,32.66,0,0,0-9.05,8.68,30.59,30.59,0,0,0-4.8,11.46,47.46,47.46,0,0,1,12.2-6.33,40,40,0,0,1,12.49-1.87A40.66,40.66,0,0,1,260,340.48a31.44,31.44,0,0,1,12.86,11.87,33.26,33.26,0,0,1,4.43,17.28q0,16.33-11.54,26.88t-31.16,10.55q-20.29,0-31.72-10.84-13.4-12.6-13.4-34.79,0-15,4.51-25.53a49.74,49.74,0,0,1,14.17-18.6,62.56,62.56,0,0,1,22.67-11.94Q243.76,301.52,266.33,301.37Zm-32.16,51.34a18.58,18.58,0,0,0-9.45,2.38,16.26,16.26,0,0,0-6.37,6.81,22,22,0,0,0-2.27,10.15q0,8.35,5,13.66A16.63,16.63,0,0,0,233.73,391a17.13,17.13,0,0,0,12.93-5.31q5.09-5.31,5.09-13.88T246.81,358A16.63,16.63,0,0,0,234.17,352.71Z" transform="translate(-1 -1)"/><path class="cls-5" d="M301.26,300h9.67l1,3.15h68.34v14.13a133.83,133.83,0,0,0-15.71,17.8,116.54,116.54,0,0,0-11.06,19.52,125.31,125.31,0,0,0-7.58,20.95q-2.49,9.78-4.47,29.77h-26.3q1.77-18.1,5.94-30.17A119.4,119.4,0,0,1,334.51,349,140.1,140.1,0,0,1,354,325.1H320.67c-4.25,0-7,.25-8.35.73a6.62,6.62,0,0,0-3.15,2.35c-.78,1.08-1.66,3.49-2.64,7.26L305,341.38l-14-3.3Z" transform="translate(-1 -1)"/></g></svg>